<?xml version="1.0" encoding="iso-8859-1"?>
<!-- Uploaded to: SVG Repo, www.svgrepo.com, Generator: SVG Repo Mixer Tools -->
<!DOCTYPE svg PUBLIC "-//W3C//DTD SVG 1.1//EN" "http://www.w3.org/Graphics/SVG/1.1/DTD/svg11.dtd">
<svg fill="#000000" version="1.1" id="Capa_1" xmlns="http://www.w3.org/2000/svg" xmlns:xlink="http://www.w3.org/1999/xlink" 
	 width="800px" height="800px" viewBox="0 0 46.873 46.873"
	 xml:space="preserve">
<g>
	<g>
		<path d="M28.063,17.445c-1.205-0.973-1.994-2.461-1.994-4.129V3.771c0-0.401-0.325-0.726-0.728-0.726h-3.81
			c-0.401,0-0.726,0.325-0.726,0.726v9.545c0,1.668-0.79,3.157-1.994,4.129c-2.104,1.697-3.344,4.256-3.344,6.958v18.724
			c0,2.075,1.69,3.747,3.765,3.747h8.393c2.074,0,3.779-1.671,3.779-3.747V24.402C31.405,21.703,30.165,19.14,28.063,17.445z
			 M23.429,7.072c0.797,0,1.444,1.038,1.444,2.318c0,1.28-0.646,2.318-1.444,2.318c-0.798,0-1.444-1.038-1.444-2.318
			C21.985,8.11,22.631,7.072,23.429,7.072z M27.985,38.754h-9.097V28.302c0-2.016,1.647-3.682,3.664-3.682h1.776
			c2.017,0,3.656,1.666,3.656,3.682V38.754L27.985,38.754z"/>
		<path d="M26.069,1.224C26.069,0.548,25.521,0,24.845,0h-2.814c-0.676,0-1.224,0.548-1.224,1.224v0.379
			c0,0.401,0.325,0.727,0.726,0.727h3.81c0.401,0,0.727-0.325,0.727-0.727V1.224L26.069,1.224z"/>
	</g>
</g>
</svg>